<?xml version="1.0" encoding="UTF-8"?>
<svg width="896px" height="1019px" viewBox="0 0 896 1019" version="1.1" xmlns="http://www.w3.org/2000/svg" xmlns:xlink="http://www.w3.org/1999/xlink">
    <title>Artboard</title>
    <g id="Artboard" stroke="none" stroke-width="1" fill="none" fill-rule="evenodd">
        <g id="Group-3" transform="translate(18.000000, 662.000000)" fill="#FFFFFF">
            <path d="M33.996517,36.1396001 L34.0029333,159.042677 L0.00293325711,159.042677 L-0.000109739028,2.23935513 C10.0108858,14.3573347 21.3430947,25.6574164 33.996517,36.1396001 Z M87.0023243,71.2758739 L87.0029333,159.042677 L53.0029333,159.042677 L52.9963217,50.5749831 C63.5687621,57.94755 74.9040963,64.8478469 87.0023243,71.2758739 Z M139.99939,94.6646542 L140.002933,159.042677 L106.002933,159.042677 L105.998725,80.6918066 C116.795546,85.6816881 128.129101,90.339304 139.99939,94.6646542 Z M189.996316,110.104191 L190.002933,159.042677 L156.002933,159.042677 L155.99647,100.186548 C166.910135,103.752193 178.243417,107.058074 189.996316,110.104191 Z M241.996324,121.401032 L242.002933,159.042677 L208.002933,159.042677 L208.002583,114.49278 C218.991905,117.0072 230.323152,119.309951 241.996324,121.401032 Z M291.999026,128.815591 L292.002933,159.042677 L258.002933,159.042677 L257.997119,124.100842 C269.040607,125.852248 280.374576,127.423831 291.999026,128.815591 Z M343.996674,133.707464 L344.002933,159.042677 L310.002933,159.042677 L309.99904,130.803447 C321.080556,131.926852 332.413101,132.894858 343.996674,133.707464 Z M395.996825,136.262947 L396.002933,159.042677 L362.002933,159.042677 L361.995932,134.833938 C373.108463,135.447147 384.442094,135.923484 395.996825,136.262947 Z M440.002933,136.894386 C442.682435,136.894386 445.35003,136.887678 448.005719,136.874261 L448.002933,159.042677 L414.002933,159.042677 L413.997383,136.67805 C422.549411,136.822274 431.217928,136.894386 440.002933,136.894386 Z M500.006626,135.691795 L500.002933,159.042677 L466.002933,159.042677 L466.00765,136.677481 C477.576119,136.481595 488.909111,136.153033 500.006626,135.691795 Z M550.008385,132.582725 L550.002933,159.042677 L516.002933,159.042677 L516.007429,134.925976 C527.609398,134.296072 538.94305,133.514989 550.008385,132.582725 Z M602.009185,126.814754 L602.002933,159.042677 L568.002933,159.042677 L568.00902,130.90869 C579.656188,129.720839 590.989577,128.356194 602.009185,126.814754 Z M654.005706,117.738045 L654.002933,159.042677 L620.002933,159.042677 L620.008462,124.094395 C631.718643,122.188459 643.051058,120.069676 654.005706,117.738045 Z M706.004567,104.18879 L706.002933,159.042677 L672.002933,159.042677 L672.007852,113.631945 C683.814794,110.751692 695.147032,107.603974 706.004567,104.18879 Z M758.008056,84.1024693 L758.002933,159.042677 L724.002933,159.042677 L724.003447,98.1259073 C735.977426,93.8115252 747.312296,89.1370458 758.008056,84.1024693 Z M810.009305,53.0706789 L810.002933,159.042677 L776.002933,159.042677 L776.006216,74.9610782 C788.318609,68.2153354 799.652972,60.9185356 810.009305,53.0706789 Z M860.00516,0.00110055223 L860.002933,159.042677 L826.002933,159.042677 L826.004368,39.8084362 C839.356008,27.6763623 850.689606,14.4072504 860.00516,0.00110055223 Z" id="Rectangle-2"></path>
        </g>
        <g id="Group-4" transform="translate(242.000000, 175.651218)">
            <g id="Group-2" transform="translate(227.211576, 228.642419) rotate(-2.000000) translate(-227.211576, -228.642419) translate(52.302678, 5.968586)">
                <path d="M331.62824,281.427525 C357.323422,327.577891 356.116598,380.980003 324.319907,415.07778 C293.657321,447.959377 243.102304,453.715865 196.642208,433.985119 C205.651451,423.179454 220.399009,404.905618 240.209697,381.478098 C242.529356,394.679432 246.063311,404.72158 248.369382,404.356334 C250.824066,403.967551 250.95797,391.933996 248.668467,377.478638 C248.400258,375.785236 248.11069,374.133719 247.804501,372.538139 C253.745371,365.57736 260.083785,358.228 266.803594,350.54312 C279.792473,335.688834 301.096355,312.96381 330.71524,282.36805 Z" id="Oval-Copy-3" fill="#FFFFFF"></path>
                <path d="M310.55272,130.758421 L331.533151,75.3092475 L243.537542,111.299345 L270.765902,0 C230.714952,20.923309 201.663023,37.5522394 183.610114,49.8867912 C165.557205,62.221343 140.688843,82.4331582 109.005027,110.522237 L77.3739446,82.7261713 L67.6456271,112.949334 L-2.27373675e-13,83.651757 L6.32823632,137.921344" id="Path-7" stroke="#FFFFFF" stroke-width="8"></path>
                <path d="M186.504365,253.543365 C275.636595,350.672764 329.11678,411.360398 346.944921,435.606266" id="Path-6-Copy" stroke="#FFFFFF" stroke-width="8" stroke-linecap="round" transform="translate(266.724643, 344.574816) scale(-1, 1) translate(-266.724643, -344.574816) "></path>
            </g>
            <g id="Group" transform="translate(0.000000, 275.440976)">
                <path d="M87.8353752,98.6360297 L87.8642505,98.8468366 C87.9968482,99.771163 88.1363642,100.704965 88.2827828,101.646743 C91.2111537,120.482308 95.7915902,135.375807 98.5134819,134.912355 C100.650182,134.548463 101.006398,124.829157 99.6441904,111.555071 C116.754673,130.131359 131.904967,145.9233 145.095062,158.93112 C117.84261,180.162506 82.4164166,186.246889 52.3109749,171.563484 C8.13224313,150.016076 -7.85888497,91.9056675 16.5937906,41.7702528 C19.0815926,36.6695029 21.8921783,31.8478163 24.9806415,27.3238986 C48.0769011,54.139747 69.0274147,77.9094494 87.8353752,98.6360297 Z" id="Oval-Copy-4" fill="#FFFFFF" transform="translate(75.118185, 103.470400) rotate(4.000000) translate(-75.118185, -103.470400) "></path>
                <path d="M22.9002309,0 C94.8105275,96.0136807 138.854166,150.21351 155.031145,162.599488" id="Path-6" stroke="#FFFFFF" stroke-width="8"></path>
            </g>
        </g>
    </g>
</svg>